{
  "asset": {
    "version": "2.0",
    "generator": "Microsoft GLTF Exporter 2.4.2.20"
  },
  "accessors": [
    {
      "bufferView": 0,
      "componentType": 5123,
      "count": 6420,
      "type": "SCALAR",
      "byteOffset": 0
    },
    {
      "bufferView": 1,
      "componentType": 5123,
      "count": 15348,
      "type": "SCALAR",
      "byteOffset": 0
    },
    {
      "bufferView": 2,
      "componentType": 5126,
      "count": 2172,
      "type": "VEC3",
      "max": [
        158.96160888671875,
        48.00768280029297,
        0
      ],
      "min": [
        -0.6384000182151794,
        -4.34112024307251,
        -15
      ],
      "byteOffset": 0
    },
    {
      "bufferView": 3,
      "componentType": 5126,
      "count": 5208,
      "type": "VEC3",
      "max": [
        372.1872253417969,
        49.53984069824219,
        0
      ],
      "min": [
        0.1276800036430359,
        -20.93951988220215,
        -15
      ],
      "byteOffset": 0
    },
    {
      "bufferView": 4,
      "componentType": 5126,
      "count": 2172,
      "type": "VEC3",
      "byteOffset": 0
    },
    {
      "bufferView": 5,
      "componentType": 5126,
      "count": 5208,
      "type": "VEC3",
      "byteOffset": 0
    }
  ],
  "bufferViews": [
    {
      "buffer": 0,
      "byteOffset": 0,
      "byteLength": 12840,
      "target": 34963
    },
    {
      "buffer": 0,
      "byteOffset": 12840,
      "byteLength": 30696,
      "target": 34963
    },
    {
      "buffer": 0,
      "byteOffset": 43536,
      "byteLength": 26064,
      "target": 34962,
      "byteStride": 12
    },
    {
      "buffer": 0,
      "byteOffset": 69600,
      "byteLength": 62496,
      "target": 34962,
      "byteStride": 12
    },
    {
      "buffer": 0,
      "byteOffset": 132096,
      "byteLength": 26064,
      "target": 34962,
      "byteStride": 12
    },
    {
      "buffer": 0,
      "byteOffset": 158160,
      "byteLength": 62496,
      "target": 34962,
      "byteStride": 12
    },
    {
      "buffer": 0,
      "byteOffset": 220656,
      "byteLength": 163
    },
    {
      "buffer": 0,
      "byteOffset": 220824,
      "byteLength": 163
    },
    {
      "buffer": 0,
      "byteOffset": 220992,
      "byteLength": 163
    },
    {
      "buffer": 0,
      "byteOffset": 221160,
      "byteLength": 163
    }
  ],
  "buffers": [
    {
      "name": "jb",
      "byteLength": 221328,
      "uri": "data:application/octet-stream;base64,"
    }
  ],
  "images": [
    {
      "bufferView": 6,
      "mimeType": "image/png"
    },
    {
      "bufferView": 7,
      "mimeType": "image/png"
    },
    {
      "bufferView": 8,
      "mimeType": "image/png"
    },
    {
      "bufferView": 9,
      "mimeType": "image/png"
    }
  ],
  "materials": [
    {
      "pbrMetallicRoughness": {
        "baseColorTexture": {
          "index": 2,
          "texCoord": 0
        },
        "metallicRoughnessTexture": {
          "index": 3,
          "texCoord": 0
        },
        "baseColorFactor": [
          1,
          1,
          1,
          1
        ],
        "metallicFactor": 1,
        "roughnessFactor": 1
      },
      "name": "60",
      "doubleSided": true,
      "extensions": {
        "KHR_materials_pbrSpecularGlossiness": {
          "diffuseTexture": {
            "index": 0
          },
          "specularGlossinessTexture": {
            "index": 1,
            "texCoord": 0
          },
          "diffuseFactor": [
            1,
            1,
            1,
            1
          ],
          "specularFactor": [
            1,
            1,
            1
          ],
          "glossinessFactor": 1
        }
      },
      "extras": {
        "MSFT_sRGBFactors": false
      },
      "emissiveFactor": [
        0,
        0,
        0
      ],
      "alphaMode": "OPAQUE"
    },
    {
      "pbrMetallicRoughness": {
        "baseColorTexture": {
          "index": 2,
          "texCoord": 0
        },
        "metallicRoughnessTexture": {
          "index": 3,
          "texCoord": 0
        },
        "baseColorFactor": [
          1,
          1,
          1,
          1
        ],
        "metallicFactor": 1,
        "roughnessFactor": 1
      },
      "name": "62",
      "doubleSided": true,
      "extensions": {
        "KHR_materials_pbrSpecularGlossiness": {
          "diffuseTexture": {
            "index": 0
          },
          "specularGlossinessTexture": {
            "index": 1,
            "texCoord": 0
          },
          "diffuseFactor": [
            1,
            1,
            1,
            1
          ],
          "specularFactor": [
            1,
            1,
            1
          ],
          "glossinessFactor": 1
        }
      },
      "extras": {
        "MSFT_sRGBFactors": false
      },
      "emissiveFactor": [
        0,
        0,
        0
      ],
      "alphaMode": "OPAQUE"
    }
  ],
  "meshes": [
    {
      "name": "mesh_id50",
      "primitives": [
        {
          "attributes": {
            "POSITION": 2,
            "NORMAL": 4
          },
          "indices": 0,
          "material": 0,
          "mode": 4
        }
      ]
    },
    {
      "name": "mesh_id51",
      "primitives": [
        {
          "attributes": {
            "POSITION": 3,
            "NORMAL": 5
          },
          "indices": 1,
          "material": 1,
          "mode": 4
        }
      ]
    }
  ],
  "nodes": [
    {
      "translation": [
        -185.7744140625,
        25.965923309326172,
        7.5
      ],
      "mesh": 0,
      "rotation": [
        0,
        0,
        0,
        1
      ],
      "scale": [
        1,
        1,
        1
      ]
    },
    {
      "translation": [
        -185.7744140625,
        -53.03407669067383,
        7.5
      ],
      "mesh": 1,
      "rotation": [
        0,
        0,
        0,
        1
      ],
      "scale": [
        1,
        1,
        1
      ]
    },
    {
      "children": [
        3
      ],
      "name": "root"
    },
    {
      "children": [
        0,
        1
      ],
      "translation": [
        0.021213969215750694,
        -0.011039596982300282,
        0.2500019669532776
      ],
      "scale": [
        0.001500000013038516,
        0.001500000013038516,
        0.001500000013038516
      ],
      "name": "node_id41",
      "rotation": [
        0,
        0,
        0,
        1
      ]
    }
  ],
  "samplers": [
    {
      "minFilter": 9985,
      "wrapS": 10497,
      "wrapT": 10497
    }
  ],
  "scenes": [
    {
      "nodes": [
        2
      ]
    }
  ],
  "textures": [
    {
      "name": "texture461",
      "sampler": 0,
      "source": 0
    },
    {
      "name": "texture462",
      "sampler": 0,
      "source": 1
    },
    {
      "name": "60_bc",
      "sampler": 0,
      "source": 2
    },
    {
      "name": "60_mr",
      "sampler": 0,
      "source": 3
    }
  ],
  "scene": 0,
  "extensionsUsed": [
    "KHR_materials_pbrSpecularGlossiness"
  ]
}
